<svg width="1024" height="1024" viewBox="0 0 1024 1024" fill="none" xmlns="http://www.w3.org/2000/svg">
  <defs>
    <linearGradient id="bg" x1="120" y1="96" x2="904" y2="928" gradientUnits="userSpaceOnUse">
      <stop offset="0" stop-color="#101A3A"/>
      <stop offset="0.55" stop-color="#16244E"/>
      <stop offset="1" stop-color="#0D1228"/>
    </linearGradient>
    <linearGradient id="glow" x1="260" y1="220" x2="820" y2="760" gradientUnits="userSpaceOnUse">
      <stop offset="0" stop-color="#41E2D0" stop-opacity="0.9"/>
      <stop offset="1" stop-color="#8A7CFF" stop-opacity="0.75"/>
    </linearGradient>
    <linearGradient id="baton" x1="476" y1="360" x2="654" y2="706" gradientUnits="userSpaceOnUse">
      <stop offset="0" stop-color="#FFE7A8"/>
      <stop offset="1" stop-color="#F6B445"/>
    </linearGradient>
    <filter id="softGlow" x="96" y="96" width="832" height="832" filterUnits="userSpaceOnUse" color-interpolation-filters="sRGB">
      <feGaussianBlur stdDeviation="36"/>
    </filter>
  </defs>

  <rect x="64" y="64" width="896" height="896" rx="220" fill="url(#bg)"/>
  <rect x="88" y="88" width="848" height="848" rx="196" stroke="rgba(255,255,255,0.08)" stroke-width="8"/>

  <g filter="url(#softGlow)" opacity="0.35">
    <path d="M250 648C318 542 406 484 514 474C644 462 737 517 800 650" stroke="url(#glow)" stroke-width="34" stroke-linecap="round"/>
    <path d="M302 570C364 490 437 448 522 442C616 436 688 478 746 566" stroke="url(#glow)" stroke-width="28" stroke-linecap="round"/>
    <path d="M360 500C408 448 464 420 528 418C590 416 648 438 700 490" stroke="url(#glow)" stroke-width="22" stroke-linecap="round"/>
  </g>

  <path d="M250 648C318 542 406 484 514 474C644 462 737 517 800 650" stroke="url(#glow)" stroke-width="18" stroke-linecap="round"/>
  <path d="M302 570C364 490 437 448 522 442C616 436 688 478 746 566" stroke="url(#glow)" stroke-width="14" stroke-linecap="round" opacity="0.92"/>
  <path d="M360 500C408 448 464 420 528 418C590 416 648 438 700 490" stroke="url(#glow)" stroke-width="10" stroke-linecap="round" opacity="0.88"/>

  <circle cx="304" cy="648" r="24" fill="#41E2D0"/>
  <circle cx="514" cy="474" r="26" fill="#5FE7D9"/>
  <circle cx="800" cy="650" r="24" fill="#8A7CFF"/>
  <circle cx="302" cy="570" r="18" fill="#4EDFD1" opacity="0.95"/>
  <circle cx="522" cy="442" r="18" fill="#78DDD7" opacity="0.95"/>
  <circle cx="746" cy="566" r="18" fill="#7D89FF" opacity="0.95"/>
  <circle cx="360" cy="500" r="14" fill="#61D7CE" opacity="0.95"/>
  <circle cx="528" cy="418" r="14" fill="#8BDCD8" opacity="0.95"/>
  <circle cx="700" cy="490" r="14" fill="#95A2FF" opacity="0.95"/>

  <g transform="rotate(-26 544 592)">
    <rect x="514" y="312" width="36" height="404" rx="18" fill="url(#baton)"/>
    <circle cx="532" cy="742" r="38" fill="#FFF4D2"/>
    <circle cx="532" cy="742" r="16" fill="#F6B445" opacity="0.9"/>
  </g>

  <path d="M430 360C486 330 556 326 618 350C669 370 712 408 742 458" stroke="#F8C65E" stroke-width="18" stroke-linecap="round" opacity="0.88"/>
  <circle cx="430" cy="360" r="16" fill="#F8C65E"/>
</svg>
